<?xml version="1.0" encoding="UTF-8"?>
<svg xmlns="http://www.w3.org/2000/svg" viewBox="0 0 15 15" width="900" height="900">
<defs><filter id="s" x="-20%" y="-20%" width="140%" height="140%"><feDropShadow dx="0.03" dy="0.04" stdDeviation="0.06" flood-opacity="0.35"/></filter></defs>
<rect x="0" y="0" width="1" height="1" fill="#2d7fbd" stroke="#3d2e18" stroke-width="0.03" rx="0.08"/>
<rect x="1" y="0" width="1" height="1" fill="#2d7fbd" stroke="#3d2e18" stroke-width="0.03" rx="0.08"/>
<rect x="2" y="0" width="1" height="1" fill="#2d7fbd" stroke="#3d2e18" stroke-width="0.03" rx="0.08"/>
<rect x="3" y="0" width="1" height="1" fill="#2d7fbd" stroke="#3d2e18" stroke-width="0.03" rx="0.08"/>
<rect x="4" y="0" width="1" height="1" fill="#2d7fbd" stroke="#3d2e18" stroke-width="0.03" rx="0.08"/>
<rect x="5" y="0" width="1" height="1" fill="#2d7fbd" stroke="#3d2e18" stroke-width="0.03" rx="0.08"/>
<rect x="6" y="0" width="1" height="1" fill="#5c4837" stroke="#3d2e18" stroke-width="0.03" rx="0.08"/>
<rect x="7" y="0" width="1" height="1" fill="#5c4837" stroke="#3d2e18" stroke-width="0.03" rx="0.08"/>
<rect x="8" y="0" width="1" height="1" fill="#5c4837" stroke="#3d2e18" stroke-width="0.03" rx="0.08"/>
<rect x="9" y="0" width="1" height="1" fill="#2d9b57" stroke="#3d2e18" stroke-width="0.03" rx="0.08"/>
<rect x="10" y="0" width="1" height="1" fill="#2d9b57" stroke="#3d2e18" stroke-width="0.03" rx="0.08"/>
<rect x="11" y="0" width="1" height="1" fill="#2d9b57" stroke="#3d2e18" stroke-width="0.03" rx="0.08"/>
<rect x="12" y="0" width="1" height="1" fill="#2d9b57" stroke="#3d2e18" stroke-width="0.03" rx="0.08"/>
<rect x="13" y="0" width="1" height="1" fill="#2d9b57" stroke="#3d2e18" stroke-width="0.03" rx="0.08"/>
<rect x="14" y="0" width="1" height="1" fill="#2d9b57" stroke="#3d2e18" stroke-width="0.03" rx="0.08"/>
<rect x="0" y="1" width="1" height="1" fill="#2d7fbd" stroke="#3d2e18" stroke-width="0.03" rx="0.08"/>
<rect x="1" y="1" width="1" height="1" fill="#fff9f0" stroke="#3d2e18" stroke-width="0.03" rx="0.08"/>
<rect x="2" y="1" width="1" height="1" fill="#fff9f0" stroke="#3d2e18" stroke-width="0.03" rx="0.08"/>
<rect x="3" y="1" width="1" height="1" fill="#fff9f0" stroke="#3d2e18" stroke-width="0.03" rx="0.08"/>
<rect x="4" y="1" width="1" height="1" fill="#fff9f0" stroke="#3d2e18" stroke-width="0.03" rx="0.08"/>
<rect x="5" y="1" width="1" height="1" fill="#2d7fbd" stroke="#3d2e18" stroke-width="0.03" rx="0.08"/>
<rect x="6" y="1" width="1" height="1" fill="#5c4837" stroke="#3d2e18" stroke-width="0.03" rx="0.08"/>
<rect x="7" y="1" width="1" height="1" fill="#5c4837" stroke="#3d2e18" stroke-width="0.03" rx="0.08"/>
<rect x="8" y="1" width="1" height="1" fill="#5c4837" stroke="#3d2e18" stroke-width="0.03" rx="0.08"/>
<rect x="9" y="1" width="1" height="1" fill="#2d9b57" stroke="#3d2e18" stroke-width="0.03" rx="0.08"/>
<rect x="10" y="1" width="1" height="1" fill="#fff9f0" stroke="#3d2e18" stroke-width="0.03" rx="0.08"/>
<rect x="11" y="1" width="1" height="1" fill="#fff9f0" stroke="#3d2e18" stroke-width="0.03" rx="0.08"/>
<rect x="12" y="1" width="1" height="1" fill="#fff9f0" stroke="#3d2e18" stroke-width="0.03" rx="0.08"/>
<rect x="13" y="1" width="1" height="1" fill="#fff9f0" stroke="#3d2e18" stroke-width="0.03" rx="0.08"/>
<rect x="14" y="1" width="1" height="1" fill="#2d9b57" stroke="#3d2e18" stroke-width="0.03" rx="0.08"/>
<rect x="0" y="2" width="1" height="1" fill="#2d7fbd" stroke="#3d2e18" stroke-width="0.03" rx="0.08"/>
<rect x="1" y="2" width="1" height="1" fill="#fff9f0" stroke="#3d2e18" stroke-width="0.03" rx="0.08"/>
<rect x="2" y="2" width="1" height="1" fill="#fff9f0" stroke="#3d2e18" stroke-width="0.03" rx="0.08"/>
<rect x="3" y="2" width="1" height="1" fill="#fff9f0" stroke="#3d2e18" stroke-width="0.03" rx="0.08"/>
<rect x="4" y="2" width="1" height="1" fill="#fff9f0" stroke="#3d2e18" stroke-width="0.03" rx="0.08"/>
<rect x="5" y="2" width="1" height="1" fill="#2d7fbd" stroke="#3d2e18" stroke-width="0.03" rx="0.08"/>
<rect x="6" y="2" width="1" height="1" fill="#5c4837" stroke="#3d2e18" stroke-width="0.03" rx="0.08"/>
<rect x="7" y="2" width="1" height="1" fill="#5c4837" stroke="#3d2e18" stroke-width="0.03" rx="0.08"/>
<rect x="8" y="2" width="1" height="1" fill="#5c4837" stroke="#3d2e18" stroke-width="0.03" rx="0.08"/>
<rect x="9" y="2" width="1" height="1" fill="#2d9b57" stroke="#3d2e18" stroke-width="0.03" rx="0.08"/>
<rect x="10" y="2" width="1" height="1" fill="#fff9f0" stroke="#3d2e18" stroke-width="0.03" rx="0.08"/>
<rect x="11" y="2" width="1" height="1" fill="#fff9f0" stroke="#3d2e18" stroke-width="0.03" rx="0.08"/>
<rect x="12" y="2" width="1" height="1" fill="#fff9f0" stroke="#3d2e18" stroke-width="0.03" rx="0.08"/>
<rect x="13" y="2" width="1" height="1" fill="#fff9f0" stroke="#3d2e18" stroke-width="0.03" rx="0.08"/>
<rect x="14" y="2" width="1" height="1" fill="#2d9b57" stroke="#3d2e18" stroke-width="0.03" rx="0.08"/>
<rect x="0" y="3" width="1" height="1" fill="#2d7fbd" stroke="#3d2e18" stroke-width="0.03" rx="0.08"/>
<rect x="1" y="3" width="1" height="1" fill="#fff9f0" stroke="#3d2e18" stroke-width="0.03" rx="0.08"/>
<rect x="2" y="3" width="1" height="1" fill="#fff9f0" stroke="#3d2e18" stroke-width="0.03" rx="0.08"/>
<rect x="3" y="3" width="1" height="1" fill="#fff9f0" stroke="#3d2e18" stroke-width="0.03" rx="0.08"/>
<rect x="4" y="3" width="1" height="1" fill="#fff9f0" stroke="#3d2e18" stroke-width="0.03" rx="0.08"/>
<rect x="5" y="3" width="1" height="1" fill="#2d7fbd" stroke="#3d2e18" stroke-width="0.03" rx="0.08"/>
<rect x="6" y="3" width="1" height="1" fill="#5c4837" stroke="#3d2e18" stroke-width="0.03" rx="0.08"/>
<rect x="7" y="3" width="1" height="1" fill="#5c4837" stroke="#3d2e18" stroke-width="0.03" rx="0.08"/>
<rect x="8" y="3" width="1" height="1" fill="#5c4837" stroke="#3d2e18" stroke-width="0.03" rx="0.08"/>
<rect x="9" y="3" width="1" height="1" fill="#2d9b57" stroke="#3d2e18" stroke-width="0.03" rx="0.08"/>
<rect x="10" y="3" width="1" height="1" fill="#fff9f0" stroke="#3d2e18" stroke-width="0.03" rx="0.08"/>
<rect x="11" y="3" width="1" height="1" fill="#fff9f0" stroke="#3d2e18" stroke-width="0.03" rx="0.08"/>
<rect x="12" y="3" width="1" height="1" fill="#fff9f0" stroke="#3d2e18" stroke-width="0.03" rx="0.08"/>
<rect x="13" y="3" width="1" height="1" fill="#fff9f0" stroke="#3d2e18" stroke-width="0.03" rx="0.08"/>
<rect x="14" y="3" width="1" height="1" fill="#2d9b57" stroke="#3d2e18" stroke-width="0.03" rx="0.08"/>
<rect x="0" y="4" width="1" height="1" fill="#2d7fbd" stroke="#3d2e18" stroke-width="0.03" rx="0.08"/>
<rect x="1" y="4" width="1" height="1" fill="#fff9f0" stroke="#3d2e18" stroke-width="0.03" rx="0.08"/>
<rect x="2" y="4" width="1" height="1" fill="#fff9f0" stroke="#3d2e18" stroke-width="0.03" rx="0.08"/>
<rect x="3" y="4" width="1" height="1" fill="#fff9f0" stroke="#3d2e18" stroke-width="0.03" rx="0.08"/>
<rect x="4" y="4" width="1" height="1" fill="#fff9f0" stroke="#3d2e18" stroke-width="0.03" rx="0.08"/>
<rect x="5" y="4" width="1" height="1" fill="#2d7fbd" stroke="#3d2e18" stroke-width="0.03" rx="0.08"/>
<rect x="6" y="4" width="1" height="1" fill="#e8dcc8" stroke="#3d2e18" stroke-width="0.03" rx="0.08"/>
<rect x="7" y="4" width="1" height="1" fill="#e8d066" stroke="#3d2e18" stroke-width="0.03" rx="0.08"/>
<rect x="8" y="4" width="1" height="1" fill="#e8dcc8" stroke="#3d2e18" stroke-width="0.03" rx="0.08"/>
<rect x="9" y="4" width="1" height="1" fill="#2d9b57" stroke="#3d2e18" stroke-width="0.03" rx="0.08"/>
<rect x="10" y="4" width="1" height="1" fill="#fff9f0" stroke="#3d2e18" stroke-width="0.03" rx="0.08"/>
<rect x="11" y="4" width="1" height="1" fill="#fff9f0" stroke="#3d2e18" stroke-width="0.03" rx="0.08"/>
<rect x="12" y="4" width="1" height="1" fill="#fff9f0" stroke="#3d2e18" stroke-width="0.03" rx="0.08"/>
<rect x="13" y="4" width="1" height="1" fill="#fff9f0" stroke="#3d2e18" stroke-width="0.03" rx="0.08"/>
<rect x="14" y="4" width="1" height="1" fill="#2d9b57" stroke="#3d2e18" stroke-width="0.03" rx="0.08"/>
<rect x="0" y="5" width="1" height="1" fill="#2d7fbd" stroke="#3d2e18" stroke-width="0.03" rx="0.08"/>
<rect x="1" y="5" width="1" height="1" fill="#2d7fbd" stroke="#3d2e18" stroke-width="0.03" rx="0.08"/>
<rect x="2" y="5" width="1" height="1" fill="#2d7fbd" stroke="#3d2e18" stroke-width="0.03" rx="0.08"/>
<rect x="3" y="5" width="1" height="1" fill="#2d7fbd" stroke="#3d2e18" stroke-width="0.03" rx="0.08"/>
<rect x="4" y="5" width="1" height="1" fill="#2d7fbd" stroke="#3d2e18" stroke-width="0.03" rx="0.08"/>
<rect x="5" y="5" width="1" height="1" fill="#2d7fbd" stroke="#3d2e18" stroke-width="0.03" rx="0.08"/>
<rect x="6" y="5" width="1" height="1" fill="#e8dcc8" stroke="#3d2e18" stroke-width="0.03" rx="0.08"/>
<text x="6.5" y="5.62" font-size="0.42" text-anchor="middle" fill="#6b5a4a">★</text>
<rect x="7" y="5" width="1" height="1" fill="#e8d066" stroke="#3d2e18" stroke-width="0.03" rx="0.08"/>
<rect x="8" y="5" width="1" height="1" fill="#e8dcc8" stroke="#3d2e18" stroke-width="0.03" rx="0.08"/>
<rect x="9" y="5" width="1" height="1" fill="#2d9b57" stroke="#3d2e18" stroke-width="0.03" rx="0.08"/>
<rect x="10" y="5" width="1" height="1" fill="#2d9b57" stroke="#3d2e18" stroke-width="0.03" rx="0.08"/>
<rect x="11" y="5" width="1" height="1" fill="#2d9b57" stroke="#3d2e18" stroke-width="0.03" rx="0.08"/>
<rect x="12" y="5" width="1" height="1" fill="#2d9b57" stroke="#3d2e18" stroke-width="0.03" rx="0.08"/>
<rect x="13" y="5" width="1" height="1" fill="#2d9b57" stroke="#3d2e18" stroke-width="0.03" rx="0.08"/>
<rect x="14" y="5" width="1" height="1" fill="#2d9b57" stroke="#3d2e18" stroke-width="0.03" rx="0.08"/>
<rect x="0" y="6" width="1" height="1" fill="#e8dcc8" stroke="#3d2e18" stroke-width="0.03" rx="0.08"/>
<rect x="1" y="6" width="1" height="1" fill="#e8dcc8" stroke="#3d2e18" stroke-width="0.03" rx="0.08"/>
<text x="1.5" y="6.62" font-size="0.42" text-anchor="middle" fill="#6b5a4a">★</text>
<rect x="2" y="6" width="1" height="1" fill="#e8dcc8" stroke="#3d2e18" stroke-width="0.03" rx="0.08"/>
<rect x="3" y="6" width="1" height="1" fill="#e8dcc8" stroke="#3d2e18" stroke-width="0.03" rx="0.08"/>
<rect x="4" y="6" width="1" height="1" fill="#e8dcc8" stroke="#3d2e18" stroke-width="0.03" rx="0.08"/>
<rect x="5" y="6" width="1" height="1" fill="#e8dcc8" stroke="#3d2e18" stroke-width="0.03" rx="0.08"/>
<rect x="6" y="6" width="1" height="1" fill="#6b5344" stroke="#3d2e18" stroke-width="0.03" rx="0.08"/>
<rect x="7" y="6" width="1" height="1" fill="#2d7fbd" stroke="#3d2e18" stroke-width="0.03" rx="0.08"/>
<rect x="8" y="6" width="1" height="1" fill="#6b5344" stroke="#3d2e18" stroke-width="0.03" rx="0.08"/>
<text x="8.5" y="6.62" font-size="0.42" text-anchor="middle" fill="#6b5a4a">★</text>
<rect x="9" y="6" width="1" height="1" fill="#e8dcc8" stroke="#3d2e18" stroke-width="0.03" rx="0.08"/>
<rect x="10" y="6" width="1" height="1" fill="#e8dcc8" stroke="#3d2e18" stroke-width="0.03" rx="0.08"/>
<rect x="11" y="6" width="1" height="1" fill="#e8dcc8" stroke="#3d2e18" stroke-width="0.03" rx="0.08"/>
<rect x="12" y="6" width="1" height="1" fill="#e8dcc8" stroke="#3d2e18" stroke-width="0.03" rx="0.08"/>
<rect x="13" y="6" width="1" height="1" fill="#e8dcc8" stroke="#3d2e18" stroke-width="0.03" rx="0.08"/>
<rect x="14" y="6" width="1" height="1" fill="#e8dcc8" stroke="#3d2e18" stroke-width="0.03" rx="0.08"/>
<rect x="0" y="7" width="1" height="1" fill="#e8dcc8" stroke="#3d2e18" stroke-width="0.03" rx="0.08"/>
<rect x="1" y="7" width="1" height="1" fill="#e8dcc8" stroke="#3d2e18" stroke-width="0.03" rx="0.08"/>
<text x="1.5" y="7.62" font-size="0.42" text-anchor="middle" fill="#6b5a4a">★</text>
<rect x="2" y="7" width="1" height="1" fill="#6ed198" stroke="#3d2e18" stroke-width="0.03" rx="0.08"/>
<rect x="3" y="7" width="1" height="1" fill="#6ed198" stroke="#3d2e18" stroke-width="0.03" rx="0.08"/>
<rect x="4" y="7" width="1" height="1" fill="#6ed198" stroke="#3d2e18" stroke-width="0.03" rx="0.08"/>
<rect x="5" y="7" width="1" height="1" fill="#6ed198" stroke="#3d2e18" stroke-width="0.03" rx="0.08"/>
<text x="5.5" y="7.62" font-size="0.42" text-anchor="middle" fill="#6b5a4a">★</text>
<rect x="6" y="7" width="1" height="1" fill="#2d9b57" stroke="#3d2e18" stroke-width="0.03" rx="0.08"/>
<rect x="7" y="7" width="1" height="1" fill="#4a3728" stroke="#3d2e18" stroke-width="0.03" rx="0.08"/>
<rect x="8" y="7" width="1" height="1" fill="#c9a227" stroke="#3d2e18" stroke-width="0.03" rx="0.08"/>
<text x="8.5" y="7.62" font-size="0.42" text-anchor="middle" fill="#6b5a4a">★</text>
<rect x="9" y="7" width="1" height="1" fill="#6eb3e0" stroke="#3d2e18" stroke-width="0.03" rx="0.08"/>
<rect x="10" y="7" width="1" height="1" fill="#6eb3e0" stroke="#3d2e18" stroke-width="0.03" rx="0.08"/>
<rect x="11" y="7" width="1" height="1" fill="#6eb3e0" stroke="#3d2e18" stroke-width="0.03" rx="0.08"/>
<rect x="12" y="7" width="1" height="1" fill="#6eb3e0" stroke="#3d2e18" stroke-width="0.03" rx="0.08"/>
<rect x="13" y="7" width="1" height="1" fill="#e8dcc8" stroke="#3d2e18" stroke-width="0.03" rx="0.08"/>
<text x="13.5" y="7.62" font-size="0.42" text-anchor="middle" fill="#6b5a4a">★</text>
<rect x="14" y="7" width="1" height="1" fill="#e8dcc8" stroke="#3d2e18" stroke-width="0.03" rx="0.08"/>
<rect x="0" y="8" width="1" height="1" fill="#e8dcc8" stroke="#3d2e18" stroke-width="0.03" rx="0.08"/>
<rect x="1" y="8" width="1" height="1" fill="#e8dcc8" stroke="#3d2e18" stroke-width="0.03" rx="0.08"/>
<rect x="2" y="8" width="1" height="1" fill="#e8dcc8" stroke="#3d2e18" stroke-width="0.03" rx="0.08"/>
<rect x="3" y="8" width="1" height="1" fill="#e8dcc8" stroke="#3d2e18" stroke-width="0.03" rx="0.08"/>
<rect x="4" y="8" width="1" height="1" fill="#e8dcc8" stroke="#3d2e18" stroke-width="0.03" rx="0.08"/>
<rect x="5" y="8" width="1" height="1" fill="#e8dcc8" stroke="#3d2e18" stroke-width="0.03" rx="0.08"/>
<rect x="6" y="8" width="1" height="1" fill="#6b5344" stroke="#3d2e18" stroke-width="0.03" rx="0.08"/>
<rect x="7" y="8" width="1" height="1" fill="#b83a2e" stroke="#3d2e18" stroke-width="0.03" rx="0.08"/>
<rect x="8" y="8" width="1" height="1" fill="#6b5344" stroke="#3d2e18" stroke-width="0.03" rx="0.08"/>
<rect x="9" y="8" width="1" height="1" fill="#5c4837" stroke="#3d2e18" stroke-width="0.03" rx="0.08"/>
<rect x="10" y="8" width="1" height="1" fill="#5c4837" stroke="#3d2e18" stroke-width="0.03" rx="0.08"/>
<rect x="11" y="8" width="1" height="1" fill="#5c4837" stroke="#3d2e18" stroke-width="0.03" rx="0.08"/>
<rect x="12" y="8" width="1" height="1" fill="#5c4837" stroke="#3d2e18" stroke-width="0.03" rx="0.08"/>
<rect x="13" y="8" width="1" height="1" fill="#5c4837" stroke="#3d2e18" stroke-width="0.03" rx="0.08"/>
<rect x="14" y="8" width="1" height="1" fill="#5c4837" stroke="#3d2e18" stroke-width="0.03" rx="0.08"/>
<rect x="0" y="9" width="1" height="1" fill="#b83a2e" stroke="#3d2e18" stroke-width="0.03" rx="0.08"/>
<rect x="1" y="9" width="1" height="1" fill="#b83a2e" stroke="#3d2e18" stroke-width="0.03" rx="0.08"/>
<rect x="2" y="9" width="1" height="1" fill="#b83a2e" stroke="#3d2e18" stroke-width="0.03" rx="0.08"/>
<rect x="3" y="9" width="1" height="1" fill="#b83a2e" stroke="#3d2e18" stroke-width="0.03" rx="0.08"/>
<rect x="4" y="9" width="1" height="1" fill="#b83a2e" stroke="#3d2e18" stroke-width="0.03" rx="0.08"/>
<rect x="5" y="9" width="1" height="1" fill="#b83a2e" stroke="#3d2e18" stroke-width="0.03" rx="0.08"/>
<rect x="6" y="9" width="1" height="1" fill="#e8dcc8" stroke="#3d2e18" stroke-width="0.03" rx="0.08"/>
<rect x="7" y="9" width="1" height="1" fill="#e0786e" stroke="#3d2e18" stroke-width="0.03" rx="0.08"/>
<rect x="8" y="9" width="1" height="1" fill="#e8dcc8" stroke="#3d2e18" stroke-width="0.03" rx="0.08"/>
<rect x="9" y="9" width="1" height="1" fill="#c9a227" stroke="#3d2e18" stroke-width="0.03" rx="0.08"/>
<rect x="10" y="9" width="1" height="1" fill="#c9a227" stroke="#3d2e18" stroke-width="0.03" rx="0.08"/>
<rect x="11" y="9" width="1" height="1" fill="#c9a227" stroke="#3d2e18" stroke-width="0.03" rx="0.08"/>
<rect x="12" y="9" width="1" height="1" fill="#c9a227" stroke="#3d2e18" stroke-width="0.03" rx="0.08"/>
<rect x="13" y="9" width="1" height="1" fill="#c9a227" stroke="#3d2e18" stroke-width="0.03" rx="0.08"/>
<rect x="14" y="9" width="1" height="1" fill="#c9a227" stroke="#3d2e18" stroke-width="0.03" rx="0.08"/>
<rect x="0" y="10" width="1" height="1" fill="#b83a2e" stroke="#3d2e18" stroke-width="0.03" rx="0.08"/>
<rect x="1" y="10" width="1" height="1" fill="#fff9f0" stroke="#3d2e18" stroke-width="0.03" rx="0.08"/>
<rect x="2" y="10" width="1" height="1" fill="#fff9f0" stroke="#3d2e18" stroke-width="0.03" rx="0.08"/>
<rect x="3" y="10" width="1" height="1" fill="#fff9f0" stroke="#3d2e18" stroke-width="0.03" rx="0.08"/>
<rect x="4" y="10" width="1" height="1" fill="#fff9f0" stroke="#3d2e18" stroke-width="0.03" rx="0.08"/>
<rect x="5" y="10" width="1" height="1" fill="#b83a2e" stroke="#3d2e18" stroke-width="0.03" rx="0.08"/>
<rect x="6" y="10" width="1" height="1" fill="#e8dcc8" stroke="#3d2e18" stroke-width="0.03" rx="0.08"/>
<rect x="7" y="10" width="1" height="1" fill="#e0786e" stroke="#3d2e18" stroke-width="0.03" rx="0.08"/>
<rect x="8" y="10" width="1" height="1" fill="#5c4837" stroke="#3d2e18" stroke-width="0.03" rx="0.08"/>
<rect x="9" y="10" width="1" height="1" fill="#c9a227" stroke="#3d2e18" stroke-width="0.03" rx="0.08"/>
<rect x="10" y="10" width="1" height="1" fill="#fff9f0" stroke="#3d2e18" stroke-width="0.03" rx="0.08"/>
<rect x="11" y="10" width="1" height="1" fill="#fff9f0" stroke="#3d2e18" stroke-width="0.03" rx="0.08"/>
<rect x="12" y="10" width="1" height="1" fill="#fff9f0" stroke="#3d2e18" stroke-width="0.03" rx="0.08"/>
<rect x="13" y="10" width="1" height="1" fill="#fff9f0" stroke="#3d2e18" stroke-width="0.03" rx="0.08"/>
<rect x="14" y="10" width="1" height="1" fill="#c9a227" stroke="#3d2e18" stroke-width="0.03" rx="0.08"/>
<rect x="0" y="11" width="1" height="1" fill="#b83a2e" stroke="#3d2e18" stroke-width="0.03" rx="0.08"/>
<rect x="1" y="11" width="1" height="1" fill="#fff9f0" stroke="#3d2e18" stroke-width="0.03" rx="0.08"/>
<rect x="2" y="11" width="1" height="1" fill="#fff9f0" stroke="#3d2e18" stroke-width="0.03" rx="0.08"/>
<rect x="3" y="11" width="1" height="1" fill="#fff9f0" stroke="#3d2e18" stroke-width="0.03" rx="0.08"/>
<rect x="4" y="11" width="1" height="1" fill="#fff9f0" stroke="#3d2e18" stroke-width="0.03" rx="0.08"/>
<rect x="5" y="11" width="1" height="1" fill="#b83a2e" stroke="#3d2e18" stroke-width="0.03" rx="0.08"/>
<rect x="6" y="11" width="1" height="1" fill="#e8dcc8" stroke="#3d2e18" stroke-width="0.03" rx="0.08"/>
<text x="6.5" y="11.62" font-size="0.42" text-anchor="middle" fill="#6b5a4a">★</text>
<rect x="7" y="11" width="1" height="1" fill="#e0786e" stroke="#3d2e18" stroke-width="0.03" rx="0.08"/>
<rect x="8" y="11" width="1" height="1" fill="#5c4837" stroke="#3d2e18" stroke-width="0.03" rx="0.08"/>
<rect x="9" y="11" width="1" height="1" fill="#c9a227" stroke="#3d2e18" stroke-width="0.03" rx="0.08"/>
<rect x="10" y="11" width="1" height="1" fill="#fff9f0" stroke="#3d2e18" stroke-width="0.03" rx="0.08"/>
<rect x="11" y="11" width="1" height="1" fill="#fff9f0" stroke="#3d2e18" stroke-width="0.03" rx="0.08"/>
<rect x="12" y="11" width="1" height="1" fill="#fff9f0" stroke="#3d2e18" stroke-width="0.03" rx="0.08"/>
<rect x="13" y="11" width="1" height="1" fill="#fff9f0" stroke="#3d2e18" stroke-width="0.03" rx="0.08"/>
<rect x="14" y="11" width="1" height="1" fill="#c9a227" stroke="#3d2e18" stroke-width="0.03" rx="0.08"/>
<rect x="0" y="12" width="1" height="1" fill="#b83a2e" stroke="#3d2e18" stroke-width="0.03" rx="0.08"/>
<rect x="1" y="12" width="1" height="1" fill="#fff9f0" stroke="#3d2e18" stroke-width="0.03" rx="0.08"/>
<rect x="2" y="12" width="1" height="1" fill="#fff9f0" stroke="#3d2e18" stroke-width="0.03" rx="0.08"/>
<rect x="3" y="12" width="1" height="1" fill="#fff9f0" stroke="#3d2e18" stroke-width="0.03" rx="0.08"/>
<rect x="4" y="12" width="1" height="1" fill="#fff9f0" stroke="#3d2e18" stroke-width="0.03" rx="0.08"/>
<rect x="5" y="12" width="1" height="1" fill="#b83a2e" stroke="#3d2e18" stroke-width="0.03" rx="0.08"/>
<rect x="6" y="12" width="1" height="1" fill="#5c4837" stroke="#3d2e18" stroke-width="0.03" rx="0.08"/>
<rect x="7" y="12" width="1" height="1" fill="#5c4837" stroke="#3d2e18" stroke-width="0.03" rx="0.08"/>
<rect x="8" y="12" width="1" height="1" fill="#5c4837" stroke="#3d2e18" stroke-width="0.03" rx="0.08"/>
<rect x="9" y="12" width="1" height="1" fill="#c9a227" stroke="#3d2e18" stroke-width="0.03" rx="0.08"/>
<rect x="10" y="12" width="1" height="1" fill="#fff9f0" stroke="#3d2e18" stroke-width="0.03" rx="0.08"/>
<rect x="11" y="12" width="1" height="1" fill="#fff9f0" stroke="#3d2e18" stroke-width="0.03" rx="0.08"/>
<rect x="12" y="12" width="1" height="1" fill="#fff9f0" stroke="#3d2e18" stroke-width="0.03" rx="0.08"/>
<rect x="13" y="12" width="1" height="1" fill="#fff9f0" stroke="#3d2e18" stroke-width="0.03" rx="0.08"/>
<rect x="14" y="12" width="1" height="1" fill="#c9a227" stroke="#3d2e18" stroke-width="0.03" rx="0.08"/>
<rect x="0" y="13" width="1" height="1" fill="#b83a2e" stroke="#3d2e18" stroke-width="0.03" rx="0.08"/>
<rect x="1" y="13" width="1" height="1" fill="#fff9f0" stroke="#3d2e18" stroke-width="0.03" rx="0.08"/>
<rect x="2" y="13" width="1" height="1" fill="#fff9f0" stroke="#3d2e18" stroke-width="0.03" rx="0.08"/>
<rect x="3" y="13" width="1" height="1" fill="#fff9f0" stroke="#3d2e18" stroke-width="0.03" rx="0.08"/>
<rect x="4" y="13" width="1" height="1" fill="#fff9f0" stroke="#3d2e18" stroke-width="0.03" rx="0.08"/>
<rect x="5" y="13" width="1" height="1" fill="#b83a2e" stroke="#3d2e18" stroke-width="0.03" rx="0.08"/>
<rect x="6" y="13" width="1" height="1" fill="#5c4837" stroke="#3d2e18" stroke-width="0.03" rx="0.08"/>
<rect x="7" y="13" width="1" height="1" fill="#5c4837" stroke="#3d2e18" stroke-width="0.03" rx="0.08"/>
<rect x="8" y="13" width="1" height="1" fill="#5c4837" stroke="#3d2e18" stroke-width="0.03" rx="0.08"/>
<rect x="9" y="13" width="1" height="1" fill="#c9a227" stroke="#3d2e18" stroke-width="0.03" rx="0.08"/>
<rect x="10" y="13" width="1" height="1" fill="#fff9f0" stroke="#3d2e18" stroke-width="0.03" rx="0.08"/>
<rect x="11" y="13" width="1" height="1" fill="#fff9f0" stroke="#3d2e18" stroke-width="0.03" rx="0.08"/>
<rect x="12" y="13" width="1" height="1" fill="#fff9f0" stroke="#3d2e18" stroke-width="0.03" rx="0.08"/>
<rect x="13" y="13" width="1" height="1" fill="#fff9f0" stroke="#3d2e18" stroke-width="0.03" rx="0.08"/>
<rect x="14" y="13" width="1" height="1" fill="#c9a227" stroke="#3d2e18" stroke-width="0.03" rx="0.08"/>
<rect x="0" y="14" width="1" height="1" fill="#b83a2e" stroke="#3d2e18" stroke-width="0.03" rx="0.08"/>
<rect x="1" y="14" width="1" height="1" fill="#b83a2e" stroke="#3d2e18" stroke-width="0.03" rx="0.08"/>
<rect x="2" y="14" width="1" height="1" fill="#b83a2e" stroke="#3d2e18" stroke-width="0.03" rx="0.08"/>
<rect x="3" y="14" width="1" height="1" fill="#b83a2e" stroke="#3d2e18" stroke-width="0.03" rx="0.08"/>
<rect x="4" y="14" width="1" height="1" fill="#b83a2e" stroke="#3d2e18" stroke-width="0.03" rx="0.08"/>
<rect x="5" y="14" width="1" height="1" fill="#b83a2e" stroke="#3d2e18" stroke-width="0.03" rx="0.08"/>
<rect x="6" y="14" width="1" height="1" fill="#5c4837" stroke="#3d2e18" stroke-width="0.03" rx="0.08"/>
<rect x="7" y="14" width="1" height="1" fill="#5c4837" stroke="#3d2e18" stroke-width="0.03" rx="0.08"/>
<rect x="8" y="14" width="1" height="1" fill="#5c4837" stroke="#3d2e18" stroke-width="0.03" rx="0.08"/>
<rect x="9" y="14" width="1" height="1" fill="#c9a227" stroke="#3d2e18" stroke-width="0.03" rx="0.08"/>
<rect x="10" y="14" width="1" height="1" fill="#c9a227" stroke="#3d2e18" stroke-width="0.03" rx="0.08"/>
<rect x="11" y="14" width="1" height="1" fill="#c9a227" stroke="#3d2e18" stroke-width="0.03" rx="0.08"/>
<rect x="12" y="14" width="1" height="1" fill="#c9a227" stroke="#3d2e18" stroke-width="0.03" rx="0.08"/>
<rect x="13" y="14" width="1" height="1" fill="#c9a227" stroke="#3d2e18" stroke-width="0.03" rx="0.08"/>
<rect x="14" y="14" width="1" height="1" fill="#c9a227" stroke="#3d2e18" stroke-width="0.03" rx="0.08"/>
<rect x="0" y="0" width="15" height="15" fill="none" stroke="#2a1d12" stroke-width="0.25" rx="0.35" filter="url(#s)"/>
</svg>